HIERARCHY
ROOT Hips
{
	OFFSET -14.64140 90.27770 -84.91600
	CHANNELS 6 Xposition Yposition Zposition Zrotation Xrotation Yrotation
	JOINT Spine
	{
		OFFSET 0.00000 13.20850 -1.60436
		CHANNELS 3 Zrotation Xrotation Yrotation
		JOINT Spine1
		{
			OFFSET 0.00000 8.61716 0.00000
			CHANNELS 3 Zrotation Xrotation Yrotation
			JOINT Spine2
			{
				OFFSET 0.00000 8.61717 0.00000
				CHANNELS 3 Zrotation Xrotation Yrotation
				JOINT Spine3
				{
					OFFSET 0.00000 8.61717 0.00000
					CHANNELS 3 Zrotation Xrotation Yrotation
					JOINT Neck
					{
						OFFSET 0.00000 11.07920 1.10792
						CHANNELS 3 Zrotation Xrotation Yrotation
						JOINT Neck1
						{
							OFFSET 0.00000 7.08032 0.00000
							CHANNELS 3 Zrotation Xrotation Yrotation
							JOINT Head
							{
								OFFSET 0.00000 7.08031 0.00000
								CHANNELS 3 Zrotation Xrotation Yrotation
								End site
								{
									OFFSET 0.00000 0.00000 0.00000
								}
							}
						}
					}
					JOINT RightShoulder
					{
						OFFSET -0.01000 7.91373 5.19711
						CHANNELS 3 Zrotation Xrotation Yrotation
						JOINT RightArm
						{
							OFFSET -18.41580 0.00000 0.00000
							CHANNELS 3 Zrotation Xrotation Yrotation
							JOINT RightForeArm
							{
								OFFSET -29.11090 0.00000 0.00000
								CHANNELS 3 Zrotation Xrotation Yrotation
								JOINT RightHand
								{
									OFFSET -24.65040 0.00000 0.00000
									CHANNELS 3 Zrotation Xrotation Yrotation
									JOINT RightHandThumb1
									{
										OFFSET -5.35114 -0.85590 3.97906
										CHANNELS 3 Zrotation Xrotation Yrotation
										JOINT RightHandThumb2
										{
											OFFSET -4.52789 0.00000 0.00000
											CHANNELS 3 Zrotation Xrotation Yrotation
											JOINT RightHandThumb3
											{
												OFFSET -2.46976 0.00000 0.00000
												CHANNELS 3 Zrotation Xrotation Yrotation
												End site
												{
													OFFSET 0.00000 0.00000 0.00000
												}
											}
										}
									}
									JOINT RightHandIndex1
									{
										OFFSET -14.26970 0.00000 2.88139
										CHANNELS 3 Zrotation Xrotation Yrotation
										JOINT RightHandIndex2
										{
											OFFSET -5.48836 0.00000 0.00000
											CHANNELS 3 Zrotation Xrotation Yrotation
											JOINT RightHandIndex3
											{
												OFFSET -3.01859 0.00000 0.00000
												CHANNELS 3 Zrotation Xrotation Yrotation
												End site
												{
													OFFSET 0.00000 0.00000 0.00000
												}
											}
										}
									}
									JOINT RightHandMiddle1
									{
										OFFSET -14.26970 0.00000 -0.09147
										CHANNELS 3 Zrotation Xrotation Yrotation
										JOINT RightHandMiddle2
										{
											OFFSET -6.17441 0.00000 0.00000
											CHANNELS 3 Zrotation Xrotation Yrotation
											JOINT RightHandMiddle3
											{
												OFFSET -3.56743 0.00000 0.00000
												CHANNELS 3 Zrotation Xrotation Yrotation
												End site
												{
													OFFSET 0.00000 0.00000 0.00000
												}
											}
										}
									}
									JOINT RightHandRing1
									{
										OFFSET -12.69180 0.00000 -3.06433
										CHANNELS 3 Zrotation Xrotation Yrotation
										JOINT RightHandRing2
										{
											OFFSET -5.62556 0.00000 0.00000
											CHANNELS 3 Zrotation Xrotation Yrotation
											JOINT RightHandRing3
											{
												OFFSET -3.56744 0.00000 0.00000
												CHANNELS 3 Zrotation Xrotation Yrotation
												End site
												{
													OFFSET 0.00000 0.00000 0.00000
												}
											}
										}
									}
									JOINT RightHandPinky1
									{
										OFFSET -11.11390 0.00000 -6.03719
										CHANNELS 3 Zrotation Xrotation Yrotation
										JOINT RightHandPinky2
										{
											OFFSET -4.52789 0.00000 0.00000
											CHANNELS 3 Zrotation Xrotation Yrotation
											JOINT RightHandPinky3
											{
												OFFSET -2.46976 0.00000 0.00000
												CHANNELS 3 Zrotation Xrotation Yrotation
												End site
												{
													OFFSET 0.00000 0.00000 0.00000
												}
											}
										}
									}
								}
							}
						}
					}
					JOINT LeftShoulder
					{
						OFFSET 0.01000 7.91373 5.19711
						CHANNELS 3 Zrotation Xrotation Yrotation
						JOINT LeftArm
						{
							OFFSET 18.41580 0.00000 0.00000
							CHANNELS 3 Zrotation Xrotation Yrotation
							JOINT LeftForeArm
							{
								OFFSET 29.11090 0.00000 0.00000
								CHANNELS 3 Zrotation Xrotation Yrotation
								JOINT LeftHand
								{
									OFFSET 24.65040 0.00000 0.00000
									CHANNELS 3 Zrotation Xrotation Yrotation
									JOINT LeftHandThumb1
									{
										OFFSET 5.35114 -0.85590 3.97906
										CHANNELS 3 Zrotation Xrotation Yrotation
										JOINT LeftHandThumb2
										{
											OFFSET 4.52789 0.00000 0.00000
											CHANNELS 3 Zrotation Xrotation Yrotation
											JOINT LeftHandThumb3
											{
												OFFSET 2.46977 0.00000 0.00000
												CHANNELS 3 Zrotation Xrotation Yrotation
												End site
												{
													OFFSET 0.00000 0.00000 0.00000
												}
											}
										}
									}
									JOINT LeftHandIndex1
									{
										OFFSET 14.26970 0.00000 2.88139
										CHANNELS 3 Zrotation Xrotation Yrotation
										JOINT LeftHandIndex2
										{
											OFFSET 5.48836 0.00000 0.00000
											CHANNELS 3 Zrotation Xrotation Yrotation
											JOINT LeftHandIndex3
											{
												OFFSET 3.01859 0.00000 0.00000
												CHANNELS 3 Zrotation Xrotation Yrotation
												End site
												{
													OFFSET 0.00000 0.00000 0.00000
												}
											}
										}
									}
									JOINT LeftHandMiddle1
									{
										OFFSET 14.26970 0.00000 -0.09147
										CHANNELS 3 Zrotation Xrotation Yrotation
										JOINT LeftHandMiddle2
										{
											OFFSET 6.17440 0.00000 0.00000
											CHANNELS 3 Zrotation Xrotation Yrotation
											JOINT LeftHandMiddle3
											{
												OFFSET 3.56744 0.00000 0.00000
												CHANNELS 3 Zrotation Xrotation Yrotation
												End site
												{
													OFFSET 0.00000 0.00000 0.00000
												}
											}
										}
									}
									JOINT LeftHandRing1
									{
										OFFSET 12.69180 0.00000 -3.06433
										CHANNELS 3 Zrotation Xrotation Yrotation
										JOINT LeftHandRing2
										{
											OFFSET 5.62556 0.00000 0.00000
											CHANNELS 3 Zrotation Xrotation Yrotation
											JOINT LeftHandRing3
											{
												OFFSET 3.56744 0.00000 0.00000
												CHANNELS 3 Zrotation Xrotation Yrotation
												End site
												{
													OFFSET 0.00000 0.00000 0.00000
												}
											}
										}
									}
									JOINT LeftHandPinky1
									{
										OFFSET 11.11390 0.00000 -6.03719
										CHANNELS 3 Zrotation Xrotation Yrotation
										JOINT LeftHandPinky2
										{
											OFFSET 4.52789 0.00000 0.00000
											CHANNELS 3 Zrotation Xrotation Yrotation
											JOINT LeftHandPinky3
											{
												OFFSET 2.46976 0.00000 0.00000
												CHANNELS 3 Zrotation Xrotation Yrotation
												End site
												{
													OFFSET 0.00000 0.00000 0.00000
												}
											}
										}
									}
								}
							}
						}
					}
					JOINT pCube4
					{
						OFFSET 0.00000 10.91090 1.10792
						CHANNELS 3 Zrotation Xrotation Yrotation
						End site
						{
							OFFSET 0.00000 0.00000 0.00000
						}
					}
				}
			}
		}
	}
	JOINT RightUpLeg
	{
		OFFSET -9.98441 0.00000 0.00000
		CHANNELS 3 Zrotation Xrotation Yrotation
		JOINT RightLeg
		{
			OFFSET 0.00000 -42.11790 0.00000
			CHANNELS 3 Zrotation Xrotation Yrotation
			JOINT RightFoot
			{
				OFFSET 0.00000 -45.00020 -0.00001
				CHANNELS 3 Zrotation Xrotation Yrotation
				JOINT RightForeFoot
				{
					OFFSET 0.00000 -3.74820 0.00000
					CHANNELS 3 Zrotation Xrotation Yrotation
					JOINT RightToeBase
					{
						OFFSET 0.00000 0.06325 14.43120
						CHANNELS 3 Zrotation Xrotation Yrotation
						End site
						{
							OFFSET 0.00000 0.00000 0.00000
						}
					}
				}
			}
		}
	}
	JOINT LeftUpLeg
	{
		OFFSET 9.98441 0.00000 0.00000
		CHANNELS 3 Zrotation Xrotation Yrotation
		JOINT LeftLeg
		{
			OFFSET 0.00000 -42.11800 0.00000
			CHANNELS 3 Zrotation Xrotation Yrotation
			JOINT LeftFoot
			{
				OFFSET 0.00000 -45.00070 0.00000
				CHANNELS 3 Zrotation Xrotation Yrotation
				JOINT LeftForeFoot
				{
					OFFSET 0.00000 -3.74824 0.00000
					CHANNELS 3 Zrotation Xrotation Yrotation
					JOINT LeftToeBase
					{
						OFFSET 0.00000 0.06325 14.43110
						CHANNELS 3 Zrotation Xrotation Yrotation
						End site
						{
							OFFSET 0.00000 0.00000 0.00000
						}
					}
				}
			}
		}
	}
}
MOTION
Frames: 4
Frame Time: 0.050000
0.008960371203393101 0.010664911389701472 0.02502294289034194 -0.008885558295909188 0.02387376935510454 0.01156740543968391 5.912249157309446 3.0881122907245517 -2.3291875163367872 -0.6666218408979193 3.4450879336927716 0.39137087907092527 -0.5381778953009418 -0.9638741592766094 0.58368760004043 -0.25013762361993636 -0.5198819496166882 -0.3007146626359733 0.2056656349770422 11.296772504557904 -1.7074915806033948 0.47587811130330154 -0.6002188899302731 -3.209467352875077 0.9660862651236763 -16.996758595403545 -0.30141855544031304 -9.282703316148842 3.303728882940761 -18.83608477373864 80.37889607794898 1.6079326675518197 -3.4104630438732815 0.5997513072981079 7.671088478303731 56.17613721347703 17.616681898033246 -0.328449641477175 -2.8737972726152505 4.4829992624623225 -0.13843348808133787 -1.6014040539471404 -0.03565117156499567 0.009832940732678276 -56.20607302509987 -0.043683312102368754 0.012882679908057063 -56.22867963118016 -38.792737409636636 -0.008288305777381993 -0.003842607616562303 0.017789166102111037 0.027294836822415815 -0.0027667472406668323 0.025301153046304814 -0.047332721657215554 -0.00010573761993266305 -36.715342852229746 -0.00024410795242433195 0.04473433795425601 -0.03257517964813659 -0.0011369392149518569 -0.03435561714928389 0.005256311578033712 0.04824493205424025 0.014269015243720392 -19.723916795527437 0.042519512826769905 0.046685879514795296 -0.022539860973995796 0.04704274537235101 -0.0056930405009061515 -0.028136728540806306 -0.03089133291655936 0.021801824734205087 24.04637512743737 -0.0015290796938910263 -0.030959586743642038 28.90328387950737 0.012605254472089945 0.023829499269789268 28.87710594728967 0.012007457191539823 0.012765067394910162 8.684118200108069 2.2751859208046175 15.443558644022023 -75.67518503138368 15.287290268944389 -5.648453629923824 3.215470137105319 8.232971266626134 -44.58012935008534 -20.046997029103647 -0.21755300014616333 1.0270343438735445 -0.491567311399466 0.029989669392857375 -8.128613839693244 0.03900613868683096 0.020993998698557635 44.589932352352776 0.01985236671055377 0.045996649346928105 44.54590360778617 12.46856249471223 0.0010963177985480325 0.0047507400018904754 0.03856050603836294 0.0006484775304289432 0.014507646730885329 -0.03702969110381183 0.03115473281744697 -0.037129367736115734 11.102961581177192 0.00038642819462004384 0.004800519759280022 0.04226607447942055 0.005608224637314569 0.029085064489925004 0.02210739654119834 -0.017110648308318984 0.028336255653043225 4.811172589863349 0.029766319224584704 -0.037310160426519814 -0.030131451659435995 0.04418275145765742 0.02979237221172964 -0.0056944352967720855 -0.014885010513838814 0.04212875690723789 -5.626362055125724 0.012091560107954865 -0.03197292916147267 -6.684439423108138 0.031699143836896704 0.03902206419704265 -6.728418904902781 0.008112835615896059 -0.01678828925765955 0.0455719949551206 0.03579015097010482 0.018727140134259957 8.044311015842586 3.5226651980899932 -19.212572394266235 0.01941469630998075 10.42531906957309 0.054900944785784764 -5.582252945833666 -15.678904382294151 3.1641865248937795 -0.03197157963118425 0.03811374144572093 0.017399200348621895 -0.010929726653851515 4.679022676747464 0.02061519876104721 12.50351768778627 -8.233531589825116 6.841695425675711 0.006752948527552547 46.40007575296859 -0.00845667601589045 -4.30399512840311 -14.711366753271253 -3.870862176913217 -0.012673283135606905 -0.02168073358438144 0.02102877763479607 -0.015139596460293064 -10.725932286952698 0.028890694229791902 
-0.042643837037537824 0.019259954207771185 -0.025362092042606713 -0.03363936445644648 0.00329147180411893 -0.005418674231648629 5.8404069231664 3.0410995824045806 -2.3465132819842403 -0.6751645207685587 3.4293008487794903 0.3824526908862942 -0.5339312777786306 -1.0286405006875625 0.638201359284222 -0.20735148619796864 -0.48631195747238026 -0.31460223747271104 0.20200809427891117 11.450086787288555 -1.7135567928121833 0.4592222147593515 -0.6203459602250165 -3.331087795889966 1.0486409944397423 -16.997516220804926 -0.3624784081784862 -9.431675637722751 3.4001700404963557 -18.95811956549973 79.36509517314812 1.1959299947597737 -3.4308381553428076 1.614178092940594 7.333342254768882 59.12016493443084 17.28390163067772 -0.4026021294919464 -2.9289947462706407 4.535334340838116 -0.12281354836630187 -1.585795061736724 0.008897427870449217 -0.0026767440207207615 -56.23713425098065 -0.017764603150094715 -0.04316530838938333 -56.242622890710024 -38.73450626654593 -0.02020148833705088 -0.0394340939388774 -0.018075901545015628 0.031089902212827557 0.04991596718587039 0.024852493623609993 0.030133697930714323 0.026038307532785743 -36.73899853068183 -0.04655664482259516 -0.02389692658148085 0.0464632321929414 0.007190968166680356 -0.0038899201152749205 0.033136607114751984 -0.021925761324459735 0.03666973068290786 -19.755582582837956 -0.0029438733892440255 0.020237917520206733 -0.03374476212789858 0.005674094809135877 -0.02785908369343857 0.023075489058163652 -0.016719713499021568 0.004297437888669499 24.048707460594382 0.006696290713866034 0.037271539981711066 28.85757321783545 -0.04224259382648044 -0.01986768832528407 28.841773966653363 0.01595443220227469 -0.0153719313217934 8.845244558944055 2.2700874271355107 15.603343113287263 -75.05303811676124 14.35606259250552 -5.556501819130101 2.355181963775252 8.194903624727727 -45.48445587136053 -19.875313181706392 -0.30727246273923053 0.9822184865905309 -0.4735977109356279 0.09778240239594012 -8.122352530821944 -0.037078235126324424 -0.00100190437823724 44.53808268680523 -0.012732049384436481 -0.029334847796766202 44.57756290013329 12.429766310050793 0.042543826964962936 0.010064466814986291 0.01982376695300748 0.030940277982796333 -0.013377392199845541 -0.022827041263722002 -0.025425901267042077 -0.03077405559456244 11.135828766264657 0.004154834826996542 -0.030867625336156966 0.012824176678496784 0.01649305052110732 0.03791214245933046 -0.01964606242224992 -0.013175196639997772 -0.0031878161472262117 4.732225750833694 -0.023201221575470877 -0.011680195839617444 -0.017519184178711542 -0.045697079256900176 -0.04145334330845722 -0.04000538520293273 -0.04244571988908284 -0.04897155291582971 -5.567642634126675 0.002160989817085983 -0.04161880084810774 -6.7626670501117685 -0.045470112843689105 0.008015329060892123 -6.734089810609126 -0.03645055843348531 -0.018159998867111372 0.016081751736392844 -0.012191711983463886 0.024342990091790973 8.009507898585968 3.529252663144708 -19.214855063494586 -0.010213001464598285 10.399927322946743 0.01983077735868157 -5.58795830010733 -15.700758823533494 3.2309323417785802 0.04858053371834487 -0.04486259288925295 -0.011249266357351139 0.018957605383774633 4.6930389082225945 -0.03877372942057743 12.49751888664237 -8.201420387774812 6.904148837523775 0.021277587423477212 46.401614348054814 0.0415578001878171 -4.33306271616075 -14.737356587363653 -3.856313473131339 -0.044422375574444506 0.034496969512179156 -0.01078256295718984 0.04387588729445828 -10.757843754827471 0.007521527955480471 
0.0034344663790287647 1.4556368980232227e-05 -0.01638751517648549 -0.0019770922216310973 -0.012435152641012939 -0.03782441126376126 5.562778167108576 3.0024708771140762 -2.315681430956555 -0.7202900743652161 3.5211878634822806 0.34761896766909184 -0.565664644458787 -1.1068091213379991 0.7603842097267949 -0.298299825139876 -0.5228970181066542 -0.24172977251702735 0.23798718623545806 11.693109315679552 -1.7029767977868377 0.46773666702919897 -0.6018169141061421 -3.4037856725191733 1.0503760454520779 -16.92192150686322 -0.34426975311836355 -9.676455960646932 3.380081720658855 -19.00484198159996 78.0924182167808 0.7641609318078262 -2.9623467303345508 3.357555688841921 7.0686850862831605 63.89694568180241 17.151692131393116 -0.4037222645013726 -3.2589388604800074 4.485494053796566 -0.1313502769023203 -1.5825723264815308 -0.0027993382821035863 0.004354874379175853 -56.27990206704047 -6.268791489023276e-05 0.0036007320312033 -56.251093037379235 -38.7906875343776 -0.0012084871370907388 -0.003974038938097515 -0.003635896014348491 0.0323032982270393 -0.006626133462199181 -0.0325419633383211 0.010568909394351072 0.01142613882519243 -36.725826867881 0.034176468613599846 0.010483542376348402 0.03515229595690393 -0.029153552605510207 0.038062996133067684 -0.04182844796682247 -0.005332055345952478 0.02043971653295394 -19.76502986368791 -0.012861689821193205 -0.035491988384195906 -0.02161996769037928 -0.024084699361312432 0.031335558961974055 -0.015346406217660914 -0.03184425267092781 0.02994675982877555 24.040130624782822 0.025647110098327517 0.0007994999022869643 28.876608619034737 -0.009278289971010791 -0.005833954151663295 28.913748391662324 -0.03378496311057178 -0.03623316177020085 8.978729269358682 2.292383998808595 15.743663402610633 -74.45301382444772 13.671635751697368 -5.650373296686678 1.3373008559965265 8.153091110289568 -46.67260449729485 -19.791624055243666 -0.2533498352462536 0.747623758459998 -0.4807633375382423 0.043902485472723324 -8.143752102256824 -0.002768866187134217 0.009857906149957097 44.58566697775713 0.004731536029358126 0.0061457470639633225 44.57596154364283 12.454166516131316 0.008698854484225745 0.042903743574044015 0.028824435395152677 -0.04834858235859378 0.04366810671812972 0.023671907381965656 -0.030019226522808067 -0.012303968531866112 11.15295305032047 -0.03432579619635057 -0.045719186392118284 -0.01763742651692697 0.03626751279698032 0.004537275137378608 0.027275719925597713 -0.04916591183878949 0.03567273994104201 4.757471458738491 0.03621913997866461 -0.012489266783027444 -0.031766523581418106 0.012061701669845961 0.031920432322439754 -0.012838445493843463 0.034424389846706864 -0.04691488002773696 -5.592637681528478 -0.046199600249894925 -0.01502680220752702 -6.738627040677057 0.02457651704493714 0.03495507088495213 -6.755058962980969 0.0214878251905912 -0.04899358542878924 -0.024497275890692144 -0.041793346119217534 0.0473517296804329 8.013002592168323 3.508933937613966 -19.240152454306525 0.03545285934524459 10.406630927709225 0.046003180575714994 -5.601679844888399 -15.634333723795057 3.2388532791192755 -0.04752728025901052 -0.022146962460518577 -0.0012126887528857916 0.011605094217900264 4.680822455723421 -0.00951400887777982 12.445527279568248 -8.252469045125915 6.839967584876871 0.04446487441642863 46.36699725729958 -0.028091648055494065 -4.315249978112299 -14.772285042802537 -3.7887007561508037 0.016214203899626325 -0.04734966145332145 0.036867601940878875 -0.008250862581014536 -10.706259892821533 -0.04762807252212303 
0.02037347574117155 -0.03296419544344097 -0.022411323139488713 -0.04820148819131333 0.00012667822071327144 0.004219216212805388 5.359093950455364 3.024153742638028 -2.3078051677992955 -0.7418284552052139 3.473975769886908 0.4108175766448986 -0.635200715577831 -1.1228216715193917 0.8329535979642669 -0.3118218147615914 -0.4619500395040368 -0.30771372103872174 0.19936983542296335 11.96775351818948 -1.7626527508516128 0.493329365313806 -0.6240317052860823 -3.5930930788396465 1.0664485016230318 -16.992281526459013 -0.36863284661916745 -9.756004468723301 3.389406243002938 -19.056352965226463 76.90135916788157 0.42511285465639465 -1.9485628667017143 5.154829532077127 6.84551614666425 68.75277672006358 17.262507318587424 -0.4964253875115558 -3.8376164503992434 4.577645130033935 -0.1104329211318693 -1.6386365102167606 0.015601706051546534 0.009962531200547974 -56.20520460296315 0.027534600560459834 -0.045372676136433504 -56.18471718814944 -38.78091572661359 0.0014613410348439306 0.04983198295727937 -0.040904486144763115 -0.03262455247608745 -0.029487226481606666 -0.03490119913246121 0.03383219679415425 0.0049636727458148245 -36.74333890471881 -0.017223968632139302 -0.0076636606881424684 0.022512334867048966 -0.026517524037879773 -0.02314828231158898 -0.03591541806898599 0.010072418504493063 -0.0023792778251498646 -19.791196998894122 0.02564379191015277 -0.028114560604254428 0.004094919757572468 -0.0038065608486344024 0.02426614776277409 0.04914830448613514 0.0027912874174360726 -0.004484888082606664 24.0204273932597 0.019415117917169593 0.007803089156938759 28.87192321652134 0.017066496398380517 0.004422532955756933 28.907945081647444 -0.01801359648973134 -0.02592294382484357 9.071186669653365 2.2439244481709433 15.882349085634575 -74.06761375942234 13.19209741979275 -5.76165610468003 0.43862230763843046 8.285563236356586 -47.48949018644868 -19.95586105622024 -0.018399092665962357 0.44149358216225076 -0.4446099294550462 0.07909073489212999 -8.154968308445254 -0.03171118062348875 0.021735183138606475 44.54041358077975 -0.001238533439733158 -0.035324793907103635 44.598410343872104 12.464814261188991 0.0435622115564671 -0.028748815497469823 0.020980791366091066 -0.0005715406635947607 -0.004918086132173078 0.008291189088621368 -0.005768534620477143 -5.0903020996283925e-05 11.135668629050269 0.013555947141577268 -0.008899845047791535 -0.04414245213573266 -0.04633211779267456 -0.02979286775990021 -0.023836188511644582 0.0034396777427014268 -0.008188878755370825 4.787415566138485 0.02220108816296295 -0.03329162498620604 0.010040070321853506 -0.037897222553412525 -0.00021843210792564519 0.04317401742800964 0.007966451269532642 0.009162874728945999 -5.601934120938176 0.009640286613099597 0.009739403006930077 -6.729347676079973 0.014188854368931246 -0.022862875653015768 -6.735734387680121 0.04760039297333625 0.045824101096870525 -0.04280620441615064 0.03956829576220631 -0.03075544036854422 8.08006543754696 3.485709065474863 -19.19508490275027 0.02839140223422102 10.348139603015216 0.06331892477818667 -5.576464261012684 -15.705521866620462 3.233956071612627 -0.007070700678020704 -0.03906967421254444 0.04455061455711043 0.025269413231558815 4.702006522249629 0.03858098874344768 12.444827644833776 -8.223574727478098 6.928579398936435 -0.04113842376254614 46.403660911578534 -0.022697137866798046 -4.323962120073978 -14.761489006650404 -3.83585350272201 -0.04889497804510239 0.012603957232266993 -0.017308910731895985 0.028920365431565512 -10.746930812789097 0.00018687367708161638 
